<svg xmlns="http://www.w3.org/2000/svg" viewBox="0 0 37.38 35.8"><defs><style>.cls-1{fill:#ffcc03;}.cls-2{fill:#fff;}</style></defs><title>asdasdРесурс 5</title><g id="Слой_2" data-name="Слой 2"><g id="Слой_1-2" data-name="Слой 1"><polygon class="cls-1" points="37.34 10.45 0 10.45 0 3.87 37.34 3.87 37.34 10.45 37.34 10.45"/><polygon class="cls-1" points="37.34 35.59 0 35.59 0 9.7 37.34 9.7 37.34 35.59 37.34 35.59"/><polygon class="cls-1" points="35.53 33.73 1.81 33.73 1.81 11.44 35.53 11.44 35.53 33.73 35.53 33.73"/><path class="cls-1" d="M9.24,7.31A1.17,1.17,0,0,1,8,6.27V1.46a1.16,1.16,0,0,1,1.29-1,1.17,1.17,0,0,1,1.3,1V6.27a1.18,1.18,0,0,1-1.3,1Z"/><path class="cls-2" d="M9.24.85c.48,0,.87.27.87.61V6.27c0,.34-.39.61-.87.61s-.87-.27-.87-.61V1.46c0-.34.39-.61.87-.61m0-.85A1.6,1.6,0,0,0,7.52,1.46V6.27A1.59,1.59,0,0,0,9.24,7.73,1.59,1.59,0,0,0,11,6.27V1.46A1.6,1.6,0,0,0,9.24,0Z"/><path class="cls-1" d="M15.5,7.31a1.18,1.18,0,0,1-1.3-1V1.46a1.17,1.17,0,0,1,1.3-1,1.17,1.17,0,0,1,1.29,1V6.27a1.18,1.18,0,0,1-1.29,1Z"/><path class="cls-2" d="M15.5.85c.48,0,.87.27.87.61V6.27c0,.34-.39.61-.87.61s-.88-.27-.88-.61V1.46c0-.34.4-.61.88-.61m0-.85a1.59,1.59,0,0,0-1.72,1.46V6.27A1.58,1.58,0,0,0,15.5,7.73a1.58,1.58,0,0,0,1.71-1.46V1.46A1.59,1.59,0,0,0,15.5,0Z"/><path class="cls-1" d="M21.85,7.31a1.18,1.18,0,0,1-1.3-1V1.46a1.17,1.17,0,0,1,1.3-1,1.17,1.17,0,0,1,1.29,1V6.27a1.18,1.18,0,0,1-1.29,1Z"/><path class="cls-2" d="M21.85.85c.48,0,.87.27.87.61V6.27c0,.34-.39.61-.87.61S21,6.61,21,6.27V1.46c0-.34.39-.61.88-.61m0-.85a1.59,1.59,0,0,0-1.72,1.46V6.27a1.58,1.58,0,0,0,1.72,1.46,1.59,1.59,0,0,0,1.72-1.46V1.46A1.6,1.6,0,0,0,21.85,0Z"/><path class="cls-1" d="M28.1,7.31a1.18,1.18,0,0,1-1.29-1V1.46a1.33,1.33,0,0,1,2.59,0V6.27a1.18,1.18,0,0,1-1.3,1Z"/><path class="cls-2" d="M28.1.85c.49,0,.88.27.88.61V6.27c0,.34-.39.61-.88.61s-.87-.27-.87-.61V1.46c0-.34.39-.61.87-.61m0-.85a1.59,1.59,0,0,0-1.71,1.46V6.27a1.74,1.74,0,0,0,3.43,0V1.46A1.59,1.59,0,0,0,28.1,0Z"/><polyline class="cls-2" points="0.02 12.08 37.34 12.08 37.34 10.23 0.02 10.23"/><polygon class="cls-2" points="2.07 15.54 2.07 19.54 11.97 19.54 11.97 15.54 2.07 15.54 2.07 15.54"/><polygon class="cls-2" points="13.62 15.54 13.62 19.54 23.52 19.54 23.52 15.54 13.62 15.54 13.62 15.54"/><polygon class="cls-2" points="25.17 15.54 25.17 19.54 35.07 19.54 35.07 15.54 25.17 15.54 25.17 15.54"/><polygon class="cls-2" points="2.07 21.54 2.07 25.54 11.97 25.54 11.97 21.54 2.07 21.54 2.07 21.54"/><polygon class="cls-2" points="13.62 21.54 13.62 25.54 23.52 25.54 23.52 21.54 13.62 21.54 13.62 21.54"/><polygon class="cls-2" points="25.17 21.54 25.17 25.54 35.07 25.54 35.07 21.54 25.17 21.54 25.17 21.54"/><polygon class="cls-2" points="2.07 27.54 2.07 31.54 11.97 31.54 11.97 27.54 2.07 27.54 2.07 27.54"/><polygon class="cls-2" points="13.62 27.54 13.62 31.54 23.52 31.54 23.52 27.54 13.62 27.54 13.62 27.54"/><polygon class="cls-2" points="25.17 27.54 25.17 31.54 35.07 31.54 35.07 27.54 25.17 27.54 25.17 27.54"/><polygon class="cls-1" points="37.38 10.66 0.03 10.66 0.03 4.08 37.38 4.08 37.38 10.66 37.38 10.66"/><polygon class="cls-1" points="37.38 35.8 0.03 35.8 0.03 9.91 37.38 9.91 37.38 35.8 37.38 35.8"/><polygon class="cls-1" points="35.57 33.94 1.84 33.94 1.84 11.65 35.57 11.65 35.57 33.94 35.57 33.94"/><path class="cls-2" d="M4,17.05A2.09,2.09,0,1,0,6.11,15,2.09,2.09,0,0,0,4,17.05Z"/><path class="cls-2" d="M12,17.05A2.09,2.09,0,1,0,14.11,15,2.09,2.09,0,0,0,12,17.05Z"/><path class="cls-2" d="M20.45,17.05A2.09,2.09,0,1,0,22.53,15a2.09,2.09,0,0,0-2.08,2.08Z"/><path class="cls-2" d="M29,17.05A2.09,2.09,0,1,0,31.11,15,2.09,2.09,0,0,0,29,17.05Z"/><path class="cls-2" d="M4,23.68A2.09,2.09,0,1,0,6.11,21.6,2.08,2.08,0,0,0,4,23.68Z"/><path class="cls-2" d="M12,23.68a2.09,2.09,0,1,0,2.08-2.08A2.08,2.08,0,0,0,12,23.68Z"/><path class="cls-2" d="M20.45,23.68a2.09,2.09,0,1,0,2.08-2.08,2.08,2.08,0,0,0-2.08,2.08Z"/><path class="cls-2" d="M29,23.68a2.09,2.09,0,1,0,2.08-2.08A2.08,2.08,0,0,0,29,23.68Z"/><path class="cls-2" d="M4,30.31a2.09,2.09,0,1,0,2.08-2.08A2.08,2.08,0,0,0,4,30.31Z"/><path class="cls-2" d="M12,30.31a2.09,2.09,0,1,0,2.08-2.08A2.08,2.08,0,0,0,12,30.31Z"/><path class="cls-2" d="M20.45,30.31a2.09,2.09,0,1,0,2.08-2.08,2.08,2.08,0,0,0-2.08,2.08Z"/><path class="cls-2" d="M29,30.31a2.09,2.09,0,1,0,2.08-2.08A2.08,2.08,0,0,0,29,30.31Z"/><path class="cls-1" d="M9.27,7.51A1.17,1.17,0,0,1,8,6.48V1.67a1.17,1.17,0,0,1,1.29-1,1.17,1.17,0,0,1,1.3,1V6.48a1.17,1.17,0,0,1-1.3,1Z"/><path class="cls-2" d="M9.27,1.06c.49,0,.88.27.88.61V6.48c0,.34-.39.61-.88.61s-.87-.27-.87-.61V1.67c0-.34.39-.61.87-.61m0-.85A1.58,1.58,0,0,0,7.56,1.67V6.48A1.58,1.58,0,0,0,9.27,7.94,1.58,1.58,0,0,0,11,6.48V1.67A1.58,1.58,0,0,0,9.27.21Z"/><path class="cls-1" d="M15.53,7.51a1.17,1.17,0,0,1-1.3-1V1.67a1.17,1.17,0,0,1,1.3-1,1.17,1.17,0,0,1,1.3,1V6.48a1.17,1.17,0,0,1-1.3,1Z"/><path class="cls-2" d="M15.53,1.06c.48,0,.87.27.87.61V6.48c0,.34-.39.61-.87.61s-.87-.27-.87-.61V1.67c0-.34.39-.61.87-.61m0-.85a1.59,1.59,0,0,0-1.72,1.46V6.48a1.59,1.59,0,0,0,1.72,1.46,1.59,1.59,0,0,0,1.72-1.46V1.67A1.59,1.59,0,0,0,15.53.21Z"/><path class="cls-1" d="M21.88,7.51a1.17,1.17,0,0,1-1.3-1V1.67a1.17,1.17,0,0,1,1.3-1,1.17,1.17,0,0,1,1.3,1V6.48a1.17,1.17,0,0,1-1.3,1Z"/><path class="cls-2" d="M21.88,1.06c.48,0,.87.27.87.61V6.48c0,.34-.39.61-.87.61S21,6.82,21,6.48V1.67c0-.34.39-.61.87-.61m0-.85a1.59,1.59,0,0,0-1.72,1.46V6.48a1.59,1.59,0,0,0,1.72,1.46A1.59,1.59,0,0,0,23.6,6.48V1.67A1.59,1.59,0,0,0,21.88.21Z"/><path class="cls-1" d="M28.14,7.51a1.17,1.17,0,0,1-1.3-1V1.67a1.33,1.33,0,0,1,2.59,0V6.48a1.17,1.17,0,0,1-1.29,1Z"/><path class="cls-2" d="M28.14,1.06c.48,0,.87.27.87.61V6.48c0,.34-.39.61-.87.61s-.88-.27-.88-.61V1.67c0-.34.39-.61.88-.61m0-.85a1.58,1.58,0,0,0-1.72,1.46V6.48a1.74,1.74,0,0,0,3.43,0V1.67A1.58,1.58,0,0,0,28.14.21Z"/><polyline class="cls-2" points="0.05 12.29 37.38 12.29 37.38 10.44 0.05 10.44"/></g></g></svg>