<svg xmlns="http://www.w3.org/2000/svg" viewBox="0 0 43.91 35.39"><defs><style>.cls-1{fill:#ffcc03;}.cls-2{fill:#fff;}</style></defs><title>asdasdРесурс 6</title><g id="Слой_2" data-name="Слой 2"><g id="Слой_1-2" data-name="Слой 1"><polygon class="cls-1" points="40.67 29.4 0 29.4 0 0 40.67 0 40.67 29.4 40.67 29.4"/><path class="cls-1" d="M24.38,31.93V29.19h-8.3v2.74H8.18v1.69h22.1a9.61,9.61,0,0,1-2.57-1.69Z"/><polygon class="cls-1" points="37.51 25.9 3.16 25.9 3.16 3.5 37.51 3.5 37.51 25.9 37.51 25.9"/><polygon class="cls-2" points="37.51 25.9 37.51 25.65 3.41 25.65 3.41 3.75 37.26 3.75 37.26 25.9 37.51 25.9 37.51 25.65 37.51 25.9 37.76 25.9 37.76 3.25 2.91 3.25 2.91 26.15 37.76 26.15 37.76 25.9 37.51 25.9 37.51 25.9"/><path class="cls-2" d="M26.85,15.73c.14-.15.28-.3.42-.43H6.05v1.1H26.3c.17-.23.36-.46.55-.67Z"/><path class="cls-2" d="M26.85,15.73l.32.29.41-.41.76-.75H5.62v2H26.51l.13-.17c.17-.22.35-.44.53-.64l-.32-.29-.32-.3c-.2.23-.4.47-.58.7l.35.27V16H6.48v-.23H27.27V15.3L27,15l-.44.45.32.3Z"/><path class="cls-2" d="M24.71,20.14H6.05v1.1H24.41a10.52,10.52,0,0,1,.3-1.1Z"/><path class="cls-2" d="M24.71,20.14v-.43H5.62v2H24.76l.08-.34a8.36,8.36,0,0,1,.29-1.06l.18-.56h-.6v.43L24.3,20A11.48,11.48,0,0,0,24,21.15l.42.09v-.43H6.48v-.24H24.71v-.43L24.3,20l.41.14Z"/><polygon class="cls-2" points="34.44 6.47 26.66 6.47 26.66 7.57 34.44 7.57 34.44 6.47 34.44 6.47"/><polygon class="cls-2" points="34.44 6.47 34.44 6.12 26.3 6.12 26.3 7.93 34.8 7.93 34.8 6.12 34.44 6.12 34.44 6.47 34.09 6.47 34.09 7.22 27.02 7.22 27.02 6.83 34.44 6.83 34.44 6.47 34.09 6.47 34.44 6.47 34.44 6.47"/><polygon class="cls-2" points="34.44 11.17 26.66 11.17 26.66 12.27 34.44 12.27 34.44 11.17 34.44 11.17"/><polygon class="cls-2" points="34.44 11.17 34.44 10.82 26.3 10.82 26.3 12.63 34.8 12.63 34.8 10.82 34.44 10.82 34.44 11.17 34.09 11.17 34.09 11.92 27.02 11.92 27.02 11.53 34.44 11.53 34.44 11.17 34.09 11.17 34.44 11.17 34.44 11.17"/><path class="cls-2" d="M33.94,34.38a10,10,0,1,0-10-10,10,10,0,0,0,10,10Z"/><path class="cls-1" d="M33.94,31.73v1.08a8.51,8.51,0,1,0-8.51-8.5,8.51,8.51,0,0,0,8.51,8.5V30.64a6.34,6.34,0,1,1,4.48-10.82,6.34,6.34,0,0,1-4.48,10.82v1.09Zm3.6-.58,4.24,4.24,1.53-1.53-4.24-4.24Z"/><path class="cls-2" d="M24,9.19A2.6,2.6,0,0,0,23,8.53a5.19,5.19,0,0,1-.87-.44A.36.36,0,0,1,22,7.81a.29.29,0,0,1,.12-.24.65.65,0,0,1,.41-.1,3.14,3.14,0,0,1,1.28.34l.43-1.1a4,4,0,0,0-1.67-.38,2.3,2.3,0,0,0-1.46.41,1.35,1.35,0,0,0-.53,1.13,1.76,1.76,0,0,0,.12.68,1.45,1.45,0,0,0,.39.5,3.37,3.37,0,0,0,.77.46,7.25,7.25,0,0,1,.71.34l.19.16.06.19a.35.35,0,0,1-.15.29.83.83,0,0,1-.47.11,3.18,3.18,0,0,1-.81-.12,4.66,4.66,0,0,1-.85-.33v1.27a3,3,0,0,0,.75.26,4.33,4.33,0,0,0,.88.08,2.67,2.67,0,0,0,1.1-.21A1.6,1.6,0,0,0,24,11a1.51,1.51,0,0,0,.25-.87A1.49,1.49,0,0,0,24,9.19m-6.27.28a.84.84,0,0,1,.51.14.5.5,0,0,1,.18.41c0,.37-.22.56-.67.56h-.5V9.47Zm-.48-2h.4c.45,0,.67.15.67.45a.43.43,0,0,1-.16.37.76.76,0,0,1-.48.13h-.43V7.48Zm-1.42,4.2h2.05a2.33,2.33,0,0,0,1.47-.41,1.34,1.34,0,0,0,.54-1.13,1.3,1.3,0,0,0-.22-.79,1.17,1.17,0,0,0-.71-.43v0a1,1,0,0,0,.6-.4,1.29,1.29,0,0,0,.23-.76,1.11,1.11,0,0,0-.52-1,3.2,3.2,0,0,0-1.6-.32H15.8v5.28ZM12.28,7.49a.9.9,0,0,1,.79.38A2,2,0,0,1,13.34,9a2.1,2.1,0,0,1-.26,1.16,1,1,0,0,1-.81.37c-.71,0-1.06-.51-1.06-1.53s.36-1.55,1.07-1.55M14.19,7a2.5,2.5,0,0,0-1.91-.69,2.5,2.5,0,0,0-1.92.7,2.84,2.84,0,0,0-.65,2,2.85,2.85,0,0,0,.66,2,2.52,2.52,0,0,0,1.9.7,2.5,2.5,0,0,0,1.92-.7,2.85,2.85,0,0,0,.65-2,2.83,2.83,0,0,0-.65-2m-5.9,5.78a2.46,2.46,0,0,0,.47-1.62V6.4H7.33v4.89a1.31,1.31,0,0,1-.16.73.58.58,0,0,1-.5.21l-.28,0-.25-.05v1.11a3.51,3.51,0,0,0,.74.07,1.73,1.73,0,0,0,1.41-.55"/></g></g></svg>