<svg xmlns="http://www.w3.org/2000/svg" viewBox="0 0 38.74 35.29"><defs><style>.cls-1{fill:#fff;}.cls-2{fill:#ffcc03;}</style></defs><title>asdasdРесурс 4</title><g id="Слой_2" data-name="Слой 2"><g id="Слой_1-2" data-name="Слой 1"><path class="cls-1" d="M10.68,34.39H5.11C1.77,34.39.9,32.23.9,29.68V7.06h11l-1.2,27.33Z"/><path class="cls-2" d="M10.68,34.39v-.9H5.11a4.21,4.21,0,0,1-1.7-.3,2.27,2.27,0,0,1-1.23-1.26,5.72,5.72,0,0,1-.38-2.25V7.06H.9V8h10L9.78,34.35l.9,0v0l.9,0L12.83,6.15H0V29.68a6.39,6.39,0,0,0,1,3.85,4,4,0,0,0,1.65,1.31,6.06,6.06,0,0,0,2.43.45h6.43l0-.86-.9,0Z"/><path class="cls-2" d="M1.78,33.05c1.68,1.2,3.59.44,3.59-3,0-2.58,0-5,0-6.16V.9H37.84V29.66c0,2.55-.81,4.72-4,4.72H4.36"/><path class="cls-2" d="M1.25,33.79a3.53,3.53,0,0,0,2,.7,2.59,2.59,0,0,0,1.27-.33,3.17,3.17,0,0,0,1.33-1.58A6.69,6.69,0,0,0,6.27,30c0-2.57.05-5,.05-6.16h0v-.81h0V1.81H37.84V.9h-.9V29.66a5,5,0,0,1-.64,2.8,2,2,0,0,1-.86.72,3.56,3.56,0,0,1-1.56.3H4.36v1.8H33.88a5.44,5.44,0,0,0,2.33-.46,4,4,0,0,0,2-2.2,7.71,7.71,0,0,0,.49-3V0H4.53V23.85h0c0,1.15,0,3.57,0,6.16A4.09,4.09,0,0,1,4,32.23a1.22,1.22,0,0,1-.36.36.83.83,0,0,1-.39.09,1.74,1.74,0,0,1-.94-.36l-1,1.47Z"/><polygon class="cls-1" points="17.49 19.96 9.46 19.96 9.46 12.37 17.49 12.37 17.49 19.96 17.49 19.96"/><path class="cls-1" d="M20.7,14.78H34v-2.2H20.7Zm0,4.4H34V17H20.7Z"/><path class="cls-1" d="M9.46,24.53H34V22.3H9.46Zm0,4.52H34V26.81H9.46Z"/><polygon class="cls-1" points="33.93 9.2 9.28 9.2 9.28 4.75 33.93 4.75 33.93 9.2 33.93 9.2"/></g></g></svg>