<svg xmlns="http://www.w3.org/2000/svg" viewBox="0 0 56.1 50"><defs><style>.cls-1{fill:#ffcc03;}.cls-2{fill:none;stroke:#0c0c0c;stroke-miterlimit:10;stroke-width:5.36px;}</style></defs><title>rsdfssdfsdfРесурс 4</title><g id="Слой_2" data-name="Слой 2"><g id="Слой_1-2" data-name="Слой 1"><path class="cls-1" d="M18.51,33.8H37.59A18.67,18.67,0,0,1,56.1,50H0A18.72,18.72,0,0,1,18.51,33.8Z"/><path class="cls-1" d="M28.05,35.4c7.64,0,13.82-7.33,13.82-16.36,0-12.53-6.18-16.36-13.82-16.36S14.23,6.51,14.23,19c0,9,6.19,16.36,13.82,16.36Z"/><path class="cls-2" d="M28.05,35.4c7.64,0,13.82-7.33,13.82-16.36,0-12.53-6.18-16.36-13.82-16.36S14.23,6.51,14.23,19c0,9,6.19,16.36,13.82,16.36Z"/></g></g></svg>